<svg xmlns="http://www.w3.org/2000/svg" viewBox="0 0 673.8439999999999 180" width="673.8439999999999" height="180" role="img" aria-label="Aromadelite horizontal logo">
  <title>Aromadelite — horizontal lockup</title>
  <g transform="translate(10 10)">
    <rect width="160" height="160" rx="36" fill="#1F6BC7"></rect>
    <g transform="translate(80 105.60000000000001)">
      
  <g transform="translate(0 0) scale(0.55)">
    
    <ellipse cx="-6" cy="3" rx="120" ry="4" fill="#143A6E" opacity="0.35"></ellipse>
    
    
    <g transform="translate(-88 0)">
      <rect x="-3.5" y="-8" width="7" height="12" rx="1.5" fill="#6A4527"></rect>
      <path d="M0 -82&#xA;               C 24 -82  32 -58  32 -36&#xA;               C 32 -14  18 -6   0 -6&#xA;               C -18 -6 -32 -14 -32 -36&#xA;               C -32 -58 -24 -82 0 -82 Z" fill="#3D9354"></path>
      <path d="M-2 -74&#xA;               C 12 -74  20 -56  20 -40&#xA;               C 20 -28  10 -22 -2 -22&#xA;               C -14 -22 -20 -32 -20 -46&#xA;               C -20 -60 -16 -74 -2 -74 Z" fill="#2F7B43" opacity="0.55"></path>
    </g>
    
    
    <g transform="translate(20 0)">
      <rect x="-42" y="-58" width="84" height="58" rx="2" fill="#F8F2E0"></rect>
      <rect x="22" y="-58" width="20" height="58" fill="#E5DBC1" opacity="0.7"></rect>
      <path d="M-52 -58 L 0 -98 L 52 -58 Z" fill="#D34B3F"></path>
      <path d="M0 -98 L 52 -58 L 14 -58 Z" fill="#B83A2F"></path>
      <rect x="20" y="-90" width="10" height="18" fill="#B83A2F"></rect>
      <rect x="-9" y="-28" width="18" height="28" rx="1" fill="#2E2A24"></rect>
      <circle cx="6" cy="-13" r="1.6" fill="#F8F2E0"></circle>
      <rect x="-32" y="-48" width="22" height="18" rx="1" fill="#1F6BC7"></rect>
      <line x1="-21" y1="-48" x2="-21" y2="-30" stroke="#F8F2E0" stroke-width="1.8"></line>
      <line x1="-32" y1="-39" x2="-10" y2="-39" stroke="#F8F2E0" stroke-width="1.8"></line>
    </g>
  </g>
    </g>
  </g>
  <g transform="translate(198 115)" fill="#1A5BAA">
    <path d="M17.16 1.17L17.16 1.17Q12.64 1.17 9.50-0.57Q6.36-2.30 4.74-5.21Q3.12-8.11 3.12-11.62L3.12-11.62Q3.12-14.55 4.02-16.96Q4.91-19.38 6.92-21.24Q8.93-23.09 12.32-24.34L12.32-24.34Q14.66-25.19 17.90-25.86Q21.14-26.52 25.23-27.14L25.23-27.14Q27.65-27.50 30.34-27.89L30.34-27.89Q30.03-30.50 28.63-31.86L28.63-31.86Q26.83-33.62 22.62-33.62L22.62-33.62Q20.28-33.62 17.75-32.49Q15.21-31.36 14.20-28.47L14.20-28.47L4.60-31.51Q6.20-36.74 10.61-40.01Q15.02-43.29 22.62-43.29L22.62-43.29Q28.20-43.29 32.53-41.57Q36.85-39.86 39.08-35.65L39.08-35.65Q40.33-33.31 40.56-30.97Q40.79-28.63 40.79-25.74L40.79-25.74L40.79 0L31.51 0L31.51-5.19Q29.02-2.22 26.21-0.74L26.21-0.74Q22.62 1.17 17.16 1.17ZM19.42-7.18L19.42-7.18Q22.35-7.18 24.36-8.21Q26.36-9.24 27.55-10.57Q28.74-11.89 29.17-12.79L29.17-12.79Q29.99-14.51 30.15-16.81L30.15-16.81Q30.23-18.17 30.23-19.30L30.23-19.30Q27.61-18.84 25.74-18.52L25.74-18.52Q22.82-17.98 21.02-17.55Q19.23-17.12 17.86-16.61L17.86-16.61Q16.30-15.99 15.35-15.27Q14.39-14.55 13.94-13.69Q13.49-12.83 13.49-11.78L13.49-11.78Q13.49-10.34 14.22-9.30Q14.94-8.27 16.26-7.72Q17.59-7.18 19.42-7.18Z M60.42 0L49.73 0L49.73-42.12L59.09-42.12L59.09-35.33Q59.60-36.27 60.26-37.13L60.26-37.13Q61.63-38.92 63.62-40.09L63.62-40.09Q65.14-41.03 66.93-41.55Q68.73-42.08 70.64-42.22Q72.55-42.35 74.46-42.12L74.46-42.12L74.46-32.21Q72.70-32.76 70.38-32.58Q68.06-32.41 66.19-31.51L66.19-31.51Q64.32-30.65 63.03-29.23Q61.75-27.81 61.08-25.88Q60.42-23.95 60.42-21.53L60.42-21.53L60.42 0Z M99.62 1.17L99.62 1.17Q93.27 1.17 88.47-1.68Q83.67-4.52 81.00-9.54Q78.33-14.55 78.33-21.06L78.33-21.06Q78.33-27.65 81.06-32.66Q83.79-37.67 88.59-40.48Q93.38-43.29 99.62-43.29L99.62-43.29Q105.98-43.29 110.80-40.44Q115.61-37.60 118.30-32.58Q121.00-27.57 121.00-21.06L121.00-21.06Q121.00-14.51 118.29-9.50Q115.57-4.49 110.76-1.66Q105.94 1.17 99.62 1.17ZM99.62-8.74L99.62-8.74Q104.73-8.74 107.25-12.19Q109.76-15.64 109.76-21.06L109.76-21.06Q109.76-26.68 107.21-30.03Q104.66-33.38 99.62-33.38L99.62-33.38Q96.15-33.38 93.93-31.82Q91.71-30.26 90.63-27.50Q89.56-24.73 89.56-21.06L89.56-21.06Q89.56-15.40 92.12-12.07Q94.67-8.74 99.62-8.74Z M189.68 0L179.08 0L179.08-24.88Q179.08-29.05 177.11-31.38Q175.14-33.70 171.67-33.70L171.67-33.70Q169.44-33.70 167.81-32.66Q166.17-31.63 165.25-29.78Q164.33-27.92 164.33-25.51L164.33-25.51L164.33 0L153.73 0L153.73-24.88Q153.73-29.05 151.76-31.38Q149.79-33.70 146.32-33.70L146.32-33.70Q143.00-33.70 140.99-31.41Q138.98-29.13 138.98-25.51L138.98-25.51L138.98 0L128.30 0L128.30-42.12L137.66-42.12L137.66-37.52Q139.49-39.78 142.18-41.22L142.18-41.22Q145.65-43.13 149.98-43.13L149.98-43.13Q154.94-43.13 158.13-41.03L158.13-41.03Q160.75-39.27 162.23-36.58L162.23-36.58Q164.22-39.55 167.45-41.30L167.45-41.30Q170.89-43.13 175.10-43.13L175.10-43.13Q182.31-43.13 186.00-38.86Q189.68-34.59 189.68-27.69L189.68-27.69L189.68 0Z M210.32 1.17L210.32 1.17Q205.80 1.17 202.66-0.57Q199.52-2.30 197.90-5.21Q196.28-8.11 196.28-11.62L196.28-11.62Q196.28-14.55 197.18-16.96Q198.08-19.38 200.09-21.24Q202.09-23.09 205.49-24.34L205.49-24.34Q207.83-25.19 211.06-25.86Q214.30-26.52 218.40-27.14L218.40-27.14Q220.81-27.50 223.51-27.89L223.51-27.89Q223.19-30.50 221.79-31.86L221.79-31.86Q220.00-33.62 215.78-33.62L215.78-33.62Q213.44-33.62 210.91-32.49Q208.37-31.36 207.36-28.47L207.36-28.47L197.77-31.51Q199.36-36.74 203.77-40.01Q208.18-43.29 215.78-43.29L215.78-43.29Q221.36-43.29 225.69-41.57Q230.02-39.86 232.24-35.65L232.24-35.65Q233.49-33.31 233.72-30.97Q233.96-28.63 233.96-25.74L233.96-25.74L233.96 0L224.68 0L224.68-5.19Q222.18-2.22 219.37-0.74L219.37-0.74Q215.78 1.17 210.32 1.17ZM212.59-7.18L212.59-7.18Q215.51-7.18 217.52-8.21Q219.53-9.24 220.72-10.57Q221.91-11.89 222.34-12.79L222.34-12.79Q223.15-14.51 223.31-16.81L223.31-16.81Q223.39-18.17 223.39-19.30L223.39-19.30Q220.78-18.84 218.90-18.52L218.90-18.52Q215.98-17.98 214.19-17.55Q212.39-17.12 211.03-16.61L211.03-16.61Q209.47-15.99 208.51-15.27Q207.55-14.55 207.11-13.69Q206.66-12.83 206.66-11.78L206.66-11.78Q206.66-10.34 207.38-9.30Q208.10-8.27 209.43-7.72Q210.75-7.18 212.59-7.18Z M259.98 1.17L259.98 1.17Q254.17 1.17 249.80-1.75Q245.43-4.68 243.00-9.71Q240.56-14.74 240.56-21.06L240.56-21.06Q240.56-27.50 243.03-32.51Q245.51-37.52 250.00-40.40Q254.48-43.29 260.53-43.29L260.53-43.29Q266.10-43.29 270.04-40.76L270.04-40.76L270.04-56.16L280.73-56.16L280.73 0L271.37 0L271.37-2.42Q270.94-2.07 270.47-1.75L270.47-1.75Q266.26 1.17 259.98 1.17ZM261.70-8.27L261.70-8.27Q265.25-8.27 267.37-9.87Q269.50-11.47 270.43-14.35Q271.37-17.24 271.37-21.06Q271.37-24.88 270.43-27.77Q269.50-30.65 267.45-32.25Q265.40-33.85 262.09-33.85L262.09-33.85Q258.54-33.85 256.26-32.12Q253.97-30.38 252.88-27.48Q251.79-24.57 251.79-21.06L251.79-21.06Q251.79-17.51 252.84-14.61Q253.90-11.70 256.08-9.98Q258.26-8.27 261.70-8.27Z M310.03 1.17L310.03 1.17Q303.55 1.17 298.62-1.62Q293.69-4.41 290.90-9.30Q288.11-14.20 288.11-20.51L288.11-20.51Q288.11-27.42 290.84-32.53Q293.57-37.63 298.37-40.46Q303.16-43.29 309.40-43.29L309.40-43.29Q316.03-43.29 320.67-40.17Q325.31-37.05 327.54-31.39Q329.76-25.74 329.10-18.10L329.10-18.10L299.54-18.10Q300.04-14.31 301.91-11.97L301.91-11.97Q304.45-8.74 309.40-8.74L309.40-8.74Q312.52-8.74 314.75-10.10Q316.97-11.47 318.14-14.04L318.14-14.04L328.75-11.00Q326.37-5.23 321.24-2.03Q316.11 1.17 310.03 1.17ZM299.81-25.97L318.37-25.97Q317.90-29.41 316.58-31.28L316.58-31.28Q314.51-34.09 309.87-34.09L309.87-34.09Q304.45-34.09 301.91-30.81L301.91-30.81Q300.43-28.90 299.81-25.97L299.81-25.97Z M348.06 0L337.45 0L337.45-57.33L348.06-57.33L348.06 0Z M369.95-47.97L359.34-47.97L359.34-57.33L369.95-57.33L369.95-47.97ZM369.95 0L359.34 0L359.34-42.12L369.95-42.12L369.95 0Z M405.72-8.81L405.72 0Q401.35 0.82 397.16 0.72Q392.97 0.62 389.67-0.76Q386.38-2.15 384.66-5.23L384.66-5.23Q383.10-8.11 383.02-11.10Q382.94-14.08 382.94-17.86L382.94-17.86L382.94-33.93L375.77-33.93L375.77-42.12L382.94-42.12L382.94-53.82L393.55-53.82L393.55-42.12L405.72-42.12L405.72-33.93L393.55-33.93L393.55-18.49Q393.55-16.03 393.61-14.06Q393.67-12.09 394.41-10.92L394.41-10.92Q395.81-8.70 398.89-8.50Q401.98-8.31 405.72-8.81L405.72-8.81Z M433.46 1.17L433.46 1.17Q426.98 1.17 422.05-1.62Q417.12-4.41 414.33-9.30Q411.54-14.20 411.54-20.51L411.54-20.51Q411.54-27.42 414.27-32.53Q417.00-37.63 421.80-40.46Q426.59-43.29 432.83-43.29L432.83-43.29Q439.46-43.29 444.10-40.17Q448.75-37.05 450.97-31.39Q453.19-25.74 452.53-18.10L452.53-18.10L422.97-18.10Q423.47-14.31 425.35-11.97L425.35-11.97Q427.88-8.74 432.83-8.74L432.83-8.74Q435.95-8.74 438.18-10.10Q440.40-11.47 441.57-14.04L441.57-14.04L452.18-11.00Q449.80-5.23 444.67-2.03Q439.54 1.17 433.46 1.17ZM423.24-25.97L441.80-25.97Q441.34-29.41 440.01-31.28L440.01-31.28Q437.94-34.09 433.30-34.09L433.30-34.09Q427.88-34.09 425.35-30.81L425.35-30.81Q423.86-28.90 423.24-25.97L423.24-25.97Z"></path>
  </g>
  <g transform="translate(198 140)" fill="#D34B3F">
    <path d="M1.99 0L0.97 0L0.97-8.00L3.71-8.00Q4.64-8.00 5.24-7.68Q5.85-7.36 6.14-6.81Q6.43-6.25 6.43-5.53Q6.43-4.82 6.14-4.27Q5.85-3.72 5.25-3.42L5.25-3.42Q5.11-3.34 4.95-3.29L4.95-3.29L6.75 0L5.56 0L3.90-3.11Q3.81-3.10 3.71-3.10L3.71-3.10L1.99-3.10L1.99 0ZM1.99-7.11L1.99-4.01L3.66-4.01Q4.30-4.01 4.68-4.20Q5.06-4.38 5.24-4.72Q5.42-5.06 5.42-5.53L5.42-5.53Q5.42-6.01 5.24-6.36Q5.06-6.71 4.68-6.91Q4.29-7.11 3.65-7.11L3.65-7.11L1.99-7.11Z M16.47 0L11.55 0L11.55-8.00L16.42-8.00L16.42-7.10L12.57-7.10L12.57-4.49L16.16-4.49L16.16-3.59L12.57-3.59L12.57-0.90L16.47-0.90L16.47 0Z M22.06 0L20.97 0L23.88-8.00L25.06-8.00L28.00 0L26.93 0L26.13-2.23L22.83-2.23L22.06 0ZM23.14-3.13L25.81-3.13L25.23-4.75Q25.07-5.19 24.87-5.85L24.87-5.85Q24.70-6.39 24.46-7.19L24.46-7.19Q24.23-6.38 24.06-5.83L24.06-5.83Q23.84-5.16 23.70-4.75L23.70-4.75L23.14-3.13Z M37.47 0L32.75 0L32.75-8.00L33.77-8.00L33.77-0.90L37.47-0.90L37.47 0Z  M53.99 0L49.06 0L49.06-8.00L53.94-8.00L53.94-7.10L50.08-7.10L50.08-4.49L53.67-4.49L53.67-3.59L50.08-3.59L50.08-0.90L53.99-0.90L53.99 0Z M61.73 0.14L61.73 0.14Q60.87 0.14 60.23-0.14Q59.60-0.42 59.24-0.92Q58.88-1.42 58.83-2.09L58.83-2.09L59.88-2.09Q59.92-1.64 60.18-1.35Q60.45-1.06 60.86-0.92Q61.27-0.77 61.73-0.77L61.73-0.77Q62.28-0.77 62.71-0.95Q63.14-1.13 63.39-1.45Q63.65-1.77 63.65-2.20L63.65-2.20Q63.65-2.58 63.43-2.83Q63.21-3.07 62.85-3.22Q62.49-3.38 62.06-3.50L62.06-3.50L61.10-3.77Q60.13-4.04 59.59-4.55Q59.05-5.06 59.05-5.86L59.05-5.86Q59.05-6.54 59.42-7.04Q59.78-7.55 60.41-7.83Q61.03-8.11 61.80-8.11L61.80-8.11Q62.59-8.11 63.20-7.83Q63.81-7.55 64.16-7.07Q64.51-6.59 64.53-5.98L64.53-5.98L63.53-5.98Q63.46-6.57 62.98-6.89Q62.49-7.21 61.77-7.21L61.77-7.21Q61.26-7.21 60.87-7.04Q60.48-6.87 60.26-6.58Q60.05-6.28 60.05-5.91L60.05-5.91Q60.05-5.49 60.31-5.23Q60.57-4.98 60.93-4.84Q61.28-4.69 61.57-4.61L61.57-4.61L62.37-4.39Q62.70-4.31 63.09-4.16Q63.47-4.01 63.83-3.76Q64.18-3.51 64.41-3.12Q64.64-2.74 64.64-2.18L64.64-2.18Q64.64-1.53 64.30-1.00Q63.96-0.47 63.31-0.17Q62.66 0.14 61.73 0.14Z M71.81-7.10L69.29-7.10L69.29-8.00L75.34-8.00L75.34-7.10L72.83-7.10L72.83 0L71.81 0L71.81-7.10Z M80.73 0L79.64 0L82.55-8.00L83.73-8.00L86.67 0L85.60 0L84.80-2.23L81.50-2.23L80.73 0ZM81.81-3.13L84.48-3.13L83.90-4.75Q83.75-5.19 83.54-5.85L83.54-5.85Q83.37-6.39 83.13-7.19L83.13-7.19Q82.90-6.38 82.73-5.83L82.73-5.83Q82.52-5.16 82.38-4.75L82.38-4.75L81.81-3.13Z M93.50-7.10L90.98-7.10L90.98-8.00L97.03-8.00L97.03-7.10L94.52-7.10L94.52 0L93.50 0L93.50-7.10Z M106.95 0L102.02 0L102.02-8.00L106.90-8.00L106.90-7.10L103.04-7.10L103.04-4.49L106.63-4.49L106.63-3.59L103.04-3.59L103.04-0.90L106.95-0.90L106.95 0Z    M132.53-3.08L132.53-3.08Q132.23-3.08 132.02-3.29Q131.81-3.50 131.81-3.80L131.81-3.80Q131.81-4.10 132.02-4.32Q132.23-4.53 132.53-4.53L132.53-4.53Q132.83-4.53 133.04-4.32Q133.26-4.10 133.26-3.80L133.26-3.80Q133.26-3.50 133.04-3.29Q132.83-3.08 132.53-3.08Z    M160.93 0.14L160.93 0.14Q160.06 0.14 159.42-0.14Q158.79-0.42 158.43-0.92Q158.07-1.42 158.02-2.09L158.02-2.09L159.07-2.09Q159.11-1.64 159.37-1.35Q159.64-1.06 160.05-0.92Q160.46-0.77 160.93-0.77L160.93-0.77Q161.47-0.77 161.90-0.95Q162.33-1.13 162.59-1.45Q162.84-1.77 162.84-2.20L162.84-2.20Q162.84-2.58 162.62-2.83Q162.40-3.07 162.04-3.22Q161.68-3.38 161.25-3.50L161.25-3.50L160.29-3.77Q159.32-4.04 158.78-4.55Q158.25-5.06 158.25-5.86L158.25-5.86Q158.25-6.54 158.61-7.04Q158.98-7.55 159.60-7.83Q160.22-8.11 161.00-8.11L161.00-8.11Q161.79-8.11 162.39-7.83Q163.00-7.55 163.35-7.07Q163.70-6.59 163.72-5.98L163.72-5.98L162.73-5.98Q162.66-6.57 162.17-6.89Q161.68-7.21 160.96-7.21L160.96-7.21Q160.45-7.21 160.06-7.04Q159.67-6.87 159.45-6.58Q159.24-6.28 159.24-5.91L159.24-5.91Q159.24-5.49 159.50-5.23Q159.76-4.98 160.12-4.84Q160.47-4.69 160.76-4.61L160.76-4.61L161.56-4.39Q161.89-4.31 162.28-4.16Q162.67-4.01 163.02-3.76Q163.38-3.51 163.60-3.12Q163.83-2.74 163.83-2.18L163.83-2.18Q163.83-1.53 163.49-1.00Q163.15-0.47 162.50-0.17Q161.85 0.14 160.93 0.14Z M168.92-8.00L169.94-8.00L169.94 0L168.92 0L168.92-8.00Z M176.40 0L175.38 0L175.38-8.00L176.58-8.00L179.83-2.88Q179.96-2.69 180.15-2.37Q180.33-2.06 180.54-1.67L180.54-1.67Q180.66-1.45 180.77-1.21L180.77-1.21Q180.75-1.47 180.74-1.72L180.74-1.72Q180.72-2.14 180.71-2.49Q180.71-2.85 180.71-3.09L180.71-3.09L180.71-8.00L181.73-8.00L181.73 0L180.52 0L177.62-4.55Q177.42-4.87 177.22-5.21Q177.01-5.54 176.76-6.00L176.76-6.00Q176.57-6.33 176.32-6.78L176.32-6.78Q176.34-6.39 176.35-6.04L176.35-6.04Q176.37-5.53 176.39-5.16Q176.40-4.78 176.40-4.57L176.40-4.57L176.40 0Z M190.40 0.11L190.40 0.11Q189.38 0.11 188.57-0.39Q187.77-0.89 187.31-1.81Q186.85-2.73 186.85-4.00L186.85-4.00Q186.85-5.27 187.31-6.19Q187.77-7.11 188.57-7.61Q189.38-8.11 190.40-8.11L190.40-8.11Q191.01-8.11 191.55-7.93Q192.09-7.76 192.52-7.41Q192.95-7.07 193.24-6.59Q193.52-6.10 193.63-5.48L193.63-5.48L192.61-5.48Q192.52-5.90 192.32-6.21Q192.11-6.52 191.81-6.74Q191.51-6.95 191.15-7.06Q190.79-7.17 190.40-7.17L190.40-7.17Q189.68-7.17 189.10-6.80Q188.52-6.43 188.18-5.73Q187.85-5.02 187.85-4.00L187.85-4.00Q187.85-2.98 188.19-2.27Q188.53-1.56 189.11-1.20Q189.69-0.84 190.40-0.84L190.40-0.84Q190.79-0.84 191.15-0.95Q191.51-1.06 191.81-1.27Q192.11-1.48 192.32-1.80Q192.52-2.11 192.61-2.52L192.61-2.52L193.63-2.52Q193.53-1.91 193.24-1.42Q192.95-0.94 192.52-0.60Q192.09-0.25 191.55-0.07Q191.01 0.11 190.40 0.11Z M203.62 0L198.70 0L198.70-8.00L203.58-8.00L203.58-7.10L199.72-7.10L199.72-4.49L203.31-4.49L203.31-3.59L199.72-3.59L199.72-0.90L203.62-0.90L203.62 0Z  M220.36 0L215.26 0L215.26-0.74L217.92-3.62Q218.37-4.10 218.66-4.47Q218.96-4.83 219.11-5.16Q219.26-5.49 219.26-5.87L219.26-5.87Q219.26-6.28 219.06-6.59Q218.86-6.90 218.52-7.06Q218.19-7.22 217.76-7.22L217.76-7.22Q217.30-7.22 216.96-7.04Q216.63-6.85 216.45-6.52Q216.26-6.18 216.26-5.73L216.26-5.73L215.29-5.73Q215.29-6.44 215.61-6.98Q215.94-7.51 216.50-7.81Q217.07-8.11 217.78-8.11L217.78-8.11Q218.50-8.11 219.05-7.81Q219.60-7.51 219.91-7.01Q220.23-6.50 220.23-5.88L220.23-5.88Q220.23-5.44 220.07-5.03Q219.92-4.62 219.52-4.10Q219.13-3.58 218.42-2.83L218.42-2.83L216.67-0.96L216.67-0.90L220.36-0.90L220.36 0Z M228.12 0.11L228.12 0.11Q227.22 0.11 226.60-0.38Q225.97-0.86 225.63-1.78Q225.30-2.69 225.30-4.00L225.30-4.00Q225.30-5.30 225.64-6.21Q225.97-7.13 226.60-7.62Q227.23-8.11 228.12-8.11L228.12-8.11Q229.00-8.11 229.63-7.62Q230.26-7.13 230.60-6.21Q230.93-5.30 230.93-4.00L230.93-4.00Q230.93-2.70 230.60-1.78Q230.27-0.86 229.64-0.38Q229.01 0.11 228.12 0.11ZM228.12-0.78L228.12-0.78Q228.70-0.78 229.11-1.17Q229.52-1.55 229.73-2.26Q229.95-2.98 229.95-4.00L229.95-4.00Q229.95-5.02 229.73-5.74Q229.52-6.46 229.11-6.84Q228.70-7.22 228.12-7.22L228.12-7.22Q227.53-7.22 227.12-6.84Q226.71-6.46 226.50-5.74Q226.28-5.02 226.28-4.00L226.28-4.00Q226.28-2.98 226.50-2.26Q226.71-1.55 227.12-1.17Q227.53-0.78 228.12-0.78Z M241.01 0L235.91 0L235.91-0.74L238.57-3.62Q239.02-4.10 239.31-4.47Q239.61-4.83 239.76-5.16Q239.91-5.49 239.91-5.87L239.91-5.87Q239.91-6.28 239.71-6.59Q239.51-6.90 239.17-7.06Q238.83-7.22 238.40-7.22L238.40-7.22Q237.95-7.22 237.61-7.04Q237.28-6.85 237.09-6.52Q236.91-6.18 236.91-5.73L236.91-5.73L235.93-5.73Q235.93-6.44 236.26-6.98Q236.59-7.51 237.15-7.81Q237.72-8.11 238.43-8.11L238.43-8.11Q239.15-8.11 239.70-7.81Q240.25-7.51 240.56-7.01Q240.88-6.50 240.88-5.88L240.88-5.88Q240.88-5.44 240.72-5.03Q240.56-4.62 240.17-4.10Q239.78-3.58 239.07-2.83L239.07-2.83L237.32-0.96L237.32-0.90L241.01-0.90L241.01 0Z M249.70-1.63L245.94-1.63L245.94-2.46L249.44-8.00L250.68-8.00L250.68-2.52L251.77-2.52L251.77-1.63L250.68-1.63L250.68 0L249.70 0L249.70-1.63ZM247.03-2.52L249.71-2.52L249.71-6.72L249.64-6.72L247.03-2.59L247.03-2.52Z"></path>
  </g>
</svg>